<svg version="1.1" id="Layer_1" xmlns="http://www.w3.org/2000/svg" xmlns:xlink="http://www.w3.org/1999/xlink" x="0px" y="0px"
	 width="100%" viewBox="0 0 1024 608" enable-background="new 0 0 1024 608" xml:space="preserve">
<path fill="#000000" opacity="1.000000" stroke="none" 
	d="
M609.467957,609.000000 
	C604.863708,598.041565 599.412170,588.095947 591.114929,579.428589 
	C582.632874,570.568298 576.421326,559.753479 569.798340,549.414673 
	C565.660278,542.954834 561.538208,536.580872 556.548767,530.707397 
	C547.463684,520.012634 541.571289,507.224152 534.161255,495.426239 
	C532.218567,492.333160 530.195618,489.287201 528.118896,486.282166 
	C517.081116,470.309662 508.047119,453.109436 497.705139,436.701477 
	C483.727142,414.524780 469.120819,392.740875 455.547333,370.326752 
	C449.310669,360.028046 440.827393,350.912476 437.761139,338.739716 
	C436.971344,335.604279 434.194794,333.612030 431.275665,332.126587 
	C427.591705,330.251923 423.887665,328.426025 420.272125,326.404724 
	C416.031006,324.033722 411.678345,326.845184 407.975433,329.576813 
	C401.266266,334.526062 395.537476,340.568298 389.460724,346.221558 
	C378.623260,356.303772 367.635315,366.232269 357.030182,376.553711 
	C348.108826,385.236389 340.357910,395.043640 331.252411,403.602478 
	C323.150574,411.217865 315.156891,418.963013 307.315735,426.870575 
	C293.392120,440.911957 279.199371,454.680420 265.786560,469.227020 
	C259.018921,476.566772 252.208542,483.894897 245.012238,490.806335 
	C223.517365,511.450470 204.075226,534.083801 182.689514,554.821228 
	C174.931747,562.343750 166.578445,569.262146 158.970505,576.926331 
	C151.392761,584.560181 143.225296,591.789429 137.966263,601.421631 
	C136.599915,603.924194 133.867584,605.408447 133.063263,608.654297 
	C126.645599,609.000000 120.291206,609.000000 113.468399,609.000000 
	C119.724449,600.469055 127.960060,593.398315 135.595901,585.757263 
	C195.883606,525.429077 256.270569,465.200134 316.575989,404.889648 
	C380.179749,341.280548 443.723663,277.611633 507.301453,213.976486 
	C525.550354,195.711136 543.840271,177.486694 562.080627,159.212814 
	C567.525757,153.757645 567.034058,150.804871 559.670227,148.151367 
	C548.921204,144.278046 540.749878,136.536102 531.837646,130.019257 
	C515.001953,117.708511 499.049347,104.230812 482.211700,91.879692 
	C474.748291,86.404930 468.088562,79.691612 460.216400,74.736443 
	C448.780151,67.537849 438.624115,58.660404 427.663635,50.848503 
	C420.354675,45.639187 413.119354,40.262989 406.320068,34.416084 
	C394.055511,23.869326 380.263947,15.422793 367.557648,5.501583 
	C365.852783,4.170382 364.174072,2.805648 362.241608,1.228223 
	C368.354401,1.000000 374.708801,1.000000 381.531616,1.000000 
	C382.744995,3.715306 385.244080,4.725861 387.219910,6.132816 
	C436.063477,40.913662 484.920654,75.675453 533.818970,110.379265 
	C596.708374,155.012726 659.635559,199.592957 722.546753,244.195724 
	C793.746399,294.674835 864.946472,345.153229 936.145874,395.632629 
	C964.000366,415.381104 991.850891,435.135193 1019.714539,454.870880 
	C1021.201294,455.923950 1022.792603,456.829590 1024.667603,457.901947 
	C1025.000000,461.030609 1025.000000,464.061188 1025.000000,467.545898 
	C1023.232117,466.166870 1021.128601,464.681824 1018.761597,463.943329 
	C1004.667358,459.545837 994.460449,449.062225 982.617798,441.136902 
	C971.430847,433.650391 960.206360,426.211395 948.820496,419.033813 
	C941.740051,414.570343 935.613586,408.930511 928.956360,403.954681 
	C913.475403,392.383881 896.772705,382.687012 880.560425,372.231476 
	C869.114746,364.849976 858.209717,356.568207 846.840393,349.109711 
	C834.608276,341.085175 822.301636,333.125824 810.461792,324.579285 
	C798.422302,315.888641 785.662537,308.470093 773.045776,300.766357 
	C770.647400,299.301880 768.136597,297.856293 765.484070,297.004822 
	C758.139587,294.647156 754.254517,287.956055 748.482544,283.637451 
	C745.074951,281.087891 741.542480,278.616821 737.736267,277.698608 
	C731.597717,276.217834 726.579102,273.220062 722.276001,269.047424 
	C717.291382,264.213898 711.143921,261.161377 705.412781,257.614136 
	C698.866211,253.562241 692.752991,249.055115 686.801819,244.258804 
	C684.554932,242.447952 682.069214,241.257828 679.390869,240.240433 
	C677.404419,239.485855 675.012451,238.578781 673.891174,236.976700 
	C668.928101,229.885620 660.750000,227.704071 654.133545,223.159851 
	C645.652222,217.334854 638.054321,210.235306 629.667297,204.258072 
	C620.112183,197.448364 610.597717,190.594299 601.130676,183.663773 
	C597.174744,180.767807 594.068970,176.624039 588.846619,175.346771 
	C583.856506,174.126282 579.904602,174.616714 576.318848,178.764954 
	C570.586670,185.396393 565.557678,192.834900 557.747559,197.355301 
	C552.009705,200.676346 546.095642,203.638199 540.766479,207.685059 
	C527.394714,217.839294 516.563232,230.435928 505.579132,242.974319 
	C498.468750,251.090897 489.310059,257.064331 481.038544,263.962067 
	C466.381165,276.185028 450.119629,286.458771 436.974487,300.528809 
	C430.842316,307.092438 430.620605,306.994751 435.381805,314.308807 
	C474.190735,373.926208 513.040222,433.517181 551.851196,493.133240 
	C576.845276,531.525696 601.795288,569.946899 626.882507,608.677612 
	C621.311951,609.000000 615.623962,609.000000 609.467957,609.000000 
z"/>
</svg>